<svg width="30" height="30" viewBox="0 0 30 30" fill="none" xmlns="http://www.w3.org/2000/svg">
<path fill-rule="evenodd" clip-rule="evenodd" d="M15.8741 5.51436C15.4931 4.82855 14.5068 4.82855 14.1258 5.51436L4.12582 23.5144C3.75552 24.1809 4.23749 25 4.99997 25H25C25.7625 25 26.2444 24.1809 25.8741 23.5144L15.8741 5.51436ZM6.69949 23L15 8.05913L23.3005 23H6.69949ZM14 13C14 12.4477 14.4477 12 15 12C15.5523 12 16 12.4477 16 13V17C16 17.5523 15.5523 18 15 18C14.4477 18 14 17.5523 14 17V13ZM15 19C14.4477 19 14 19.4477 14 20V21C14 21.5523 14.4477 22 15 22C15.5523 22 16 21.5523 16 21V20C16 19.4477 15.5523 19 15 19Z" fill="black"/>
<mask id="mask0_14342_5140" style="mask-type:alpha" maskUnits="userSpaceOnUse" x="3" y="4" width="24" height="22">
<path fill-rule="evenodd" clip-rule="evenodd" d="M15.8741 5.51436C15.4931 4.82855 14.5068 4.82855 14.1258 5.51436L4.12582 23.5144C3.75552 24.1809 4.23749 25 4.99997 25H25C25.7625 25 26.2444 24.1809 25.8741 23.5144L15.8741 5.51436ZM6.69949 23L15 8.05913L23.3005 23H6.69949ZM14 13C14 12.4477 14.4477 12 15 12C15.5523 12 16 12.4477 16 13V17C16 17.5523 15.5523 18 15 18C14.4477 18 14 17.5523 14 17V13ZM15 19C14.4477 19 14 19.4477 14 20V21C14 21.5523 14.4477 22 15 22C15.5523 22 16 21.5523 16 21V20C16 19.4477 15.5523 19 15 19Z" fill="white"/>
<path d="M14.1258 5.51436L13.6887 5.27154L13.6887 5.27154L14.1258 5.51436ZM15.8741 5.51436L16.3112 5.27154L16.3112 5.27154L15.8741 5.51436ZM4.12582 23.5144L4.56289 23.7572L4.56289 23.7572L4.12582 23.5144ZM25.8741 23.5144L26.3112 23.2715L26.3112 23.2715L25.8741 23.5144ZM15 8.05913L15.4371 7.8163L15 7.02956L14.5629 7.8163L15 8.05913ZM6.69949 23L6.26241 22.7572L5.84973 23.5H6.69949V23ZM23.3005 23V23.5H24.1502L23.7375 22.7572L23.3005 23ZM14.5629 5.75718C14.7534 5.41427 15.2465 5.41427 15.4371 5.75718L16.3112 5.27154C15.7397 4.24282 14.2602 4.24282 13.6887 5.27154L14.5629 5.75718ZM4.56289 23.7572L14.5629 5.75718L13.6887 5.27154L3.68874 23.2715L4.56289 23.7572ZM4.99997 24.5C4.61873 24.5 4.37775 24.0904 4.56289 23.7572L3.68874 23.2715C3.1333 24.2713 3.85625 25.5 4.99997 25.5V24.5ZM25 24.5H4.99997V25.5H25V24.5ZM25.4371 23.7572C25.6222 24.0904 25.3812 24.5 25 24.5V25.5C26.1437 25.5 26.8667 24.2713 26.3112 23.2715L25.4371 23.7572ZM15.4371 5.75718L25.4371 23.7572L26.3112 23.2715L16.3112 5.27154L15.4371 5.75718ZM14.5629 7.8163L6.26241 22.7572L7.13657 23.2428L15.4371 8.30195L14.5629 7.8163ZM23.7375 22.7572L15.4371 7.8163L14.5629 8.30195L22.8634 23.2428L23.7375 22.7572ZM6.69949 23.5H23.3005V22.5H6.69949V23.5ZM15 11.5C14.1715 11.5 13.5 12.1716 13.5 13H14.5C14.5 12.7239 14.7238 12.5 15 12.5V11.5ZM16.5 13C16.5 12.1716 15.8284 11.5 15 11.5V12.5C15.2761 12.5 15.5 12.7239 15.5 13H16.5ZM16.5 17V13H15.5V17H16.5ZM15 18.5C15.8284 18.5 16.5 17.8284 16.5 17H15.5C15.5 17.2761 15.2761 17.5 15 17.5V18.5ZM13.5 17C13.5 17.8284 14.1715 18.5 15 18.5V17.5C14.7238 17.5 14.5 17.2761 14.5 17H13.5ZM13.5 13V17H14.5V13H13.5ZM14.5 20C14.5 19.7239 14.7238 19.5 15 19.5V18.5C14.1715 18.5 13.5 19.1716 13.5 20H14.5ZM14.5 21V20H13.5V21H14.5ZM15 21.5C14.7238 21.5 14.5 21.2761 14.5 21H13.5C13.5 21.8284 14.1715 22.5 15 22.5V21.5ZM15.5 21C15.5 21.2761 15.2761 21.5 15 21.5V22.5C15.8284 22.5 16.5 21.8284 16.5 21H15.5ZM15.5 20V21H16.5V20H15.5ZM15 19.5C15.2761 19.5 15.5 19.7239 15.5 20H16.5C16.5 19.1716 15.8284 18.5 15 18.5V19.5Z" fill="white"/>
</mask>
<g mask="url(#mask0_14342_5140)">
<rect width="30" height="30" fill="#0880AE"/>
</g>
</svg>
