<svg width="20" height="20" viewBox="0 0 20 20" fill="currentColor" xmlns="http://www.w3.org/2000/svg">
<path fill-rule="evenodd" clip-rule="evenodd" d="M2 0H18C19.1046 0 20 0.89543 20 2V18C20 19.1046 19.1046 20 18 20H2C0.89543 20 0 19.1046 0 18V2C0 0.89543 0.89543 0 2 0ZM2 15.5477L6.04883 10.4167C6.41809 9.94873 7.11213 9.9057 7.53636 10.3244L9.54496 12.3071L14.8746 5.31817C15.2514 4.8241 15.9828 4.78961 16.4044 5.24604L18 6.97349V2H2V15.5477ZM18 9.92108L15.743 7.47764L10.4463 14.4234C10.0808 14.9027 9.37757 14.9521 8.94863 14.5287L6.92666 12.5328L2.61257 18H18V9.92108ZM7 9C5.34315 9 4 7.65685 4 6C4 4.34315 5.34315 3 7 3C8.65685 3 10 4.34315 10 6C10 7.65685 8.65685 9 7 9ZM8 6C8 6.55228 7.55228 7 7 7C6.44772 7 6 6.55228 6 6C6 5.44772 6.44772 5 7 5C7.55228 5 8 5.44772 8 6Z"/>
</svg>
