<svg width="16" height="22" viewBox="0 0 16 22" fill="none" xmlns="http://www.w3.org/2000/svg">
<path fill-rule="evenodd" clip-rule="evenodd" d="M13.3685 6.7183L10.2578 6.1354L11.9263 3.25155C12.6976 1.91822 11.7355 0.25 10.1951 0.25H7.11113C6.39768 0.25 5.73825 0.630057 5.38059 1.24738L1.26958 8.34309C0.577875 9.53698 1.27434 11.0561 2.63035 11.3112L4.91677 11.7414L1.84009 18.4124C0.875478 20.5039 3.62863 22.3003 5.15444 20.5749L14.4983 10.009C15.5272 8.8455 14.8951 7.00437 13.3685 6.7183ZM7.11113 2.25H10.1951L7.11113 7.58057L13.0001 8.68408L3.65624 19.25L7.80704 10.25L3.00011 9.3457L7.11113 2.25Z" fill="black"/>
</svg>
