<svg width="22" height="21" viewBox="0 0 22 21" fill="none" xmlns="http://www.w3.org/2000/svg">
<path fill-rule="evenodd" clip-rule="evenodd" d="M1.00182 12H3.00146V20C3.00146 20.5523 3.44909 21 4.00128 21H10H12H17.9987C18.5509 21 18.9985 20.5523 18.9985 20V12H20.9982C21.8889 12 22.335 10.9229 21.7052 10.2929L11.707 0.292893C11.3165 -0.0976311 10.6835 -0.0976311 10.293 0.292893L0.294844 10.2929C-0.335006 10.9229 0.11108 12 1.00182 12ZM14 13V19H17V11C17 10.4477 17.4477 10 18 10H18.5858L11 2.41421L3.41421 10H4C4.55229 10 5 10.4477 5 11V19H8V13C8 11.8954 8.89543 11 10 11H12C13.1046 11 14 11.8954 14 13ZM10 19V13H12V19H10Z" fill="black"/>
</svg>
